<?xml version="1.0" encoding="utf-8"?>
<!-- Generator: Adobe Illustrator 27.5.0, SVG Export Plug-In . SVG Version: 6.00 Build 0)  -->
<svg version="1.1" xmlns="http://www.w3.org/2000/svg" xmlns:xlink="http://www.w3.org/1999/xlink" x="0px" y="0px"
	 viewBox="0 0 500 500" style="enable-background:new 0 0 500 500;" xml:space="preserve">
<g id="BACKGROUND">
	<rect style="fill:#FFFFFF;" width="500" height="500"/>
</g>
<g id="OBJECTS">
	<g>
		<defs>
			<path id="SVGID_1_" d="M51.612,175.451c1.096-25.783,8.43-50.715,24.732-73.663c61.31-86.3,214.983-84.114,300.017-35.524
				c25.533,14.59,47.497,36.96,56.296,64.628c7.106,22.347,5.272,46.28,5.144,69.655c-0.144,26.356,5.496,45.904,16.315,69.555
				c8.658,18.93,10.479,41.432,6.974,61.665c-7.604,43.902-40.314,79.432-79.566,99.582
				c-62.386,32.025-161.372,32.417-237.479,13.969c-38.465-9.324-75.199-28.196-93.878-54.744
				c-14.862-21.124-17.164-45.283-12.419-67.531c3.815-17.888,12.838-33.873,20.381-50.742c6.046-13.521,3.488-25.275-0.13-39.974
				C53.292,213.21,50.819,194.108,51.612,175.451z"/>
		</defs>
		<clipPath id="SVGID_00000067958973800841193380000000397445538489923502_">
			<use xlink:href="#SVGID_1_"  style="overflow:visible;"/>
		</clipPath>
		<g style="clip-path:url(#SVGID_00000067958973800841193380000000397445538489923502_);">
			<g>
				<rect x="8.034" y="-0.982" style="fill:#F2D1C8;" width="485.165" height="485.165"/>
				<path style="opacity:0.46;fill:#E8BBB1;" d="M239.382-0.954c0,0,76.505,116.792-57.318,161.034S8.034,354.275,8.034,354.275
					V-0.982L239.382-0.954z"/>
				<path style="opacity:0.46;fill:#E8BBB1;" d="M347.383,484.182c0,0-84.325-116.549,36.663-160.679
					c81.452-31.692,109.153-176.635,109.153-176.635v337.315H347.383z"/>
				<path style="opacity:0.46;fill:#E8BBB1;" d="M204.157,484.182c0,0-11.704-192.765-125.152-129.114
					c-34.611,20.387-30.418,100.003-70.972,72.694c0,56.42,0,56.42,0,56.42H204.157z"/>
			</g>
			
				<ellipse transform="matrix(0.4741 -0.8805 0.8805 0.4741 97.6576 350.9243)" style="opacity:0.3;fill:#FFFFFF;" cx="342.6" cy="93.709" rx="22.009" ry="22.009"/>
		</g>
	</g>
	<g>
		<g>
			<path style="fill:#B74B4B;" d="M162.051,435.248c0,0-7.304-0.106-14.951-5.275c-7.647-5.169-29.868-35.679-58.352-45.197
				c-28.485-9.518-36.115,0.497-59.04-20.797C53.701,395.551,79.289,457.307,162.051,435.248z"/>
			<path style="fill:#873030;" d="M96.654,411.135c39.595,24.772,65.397,24.112,65.397,24.112s-7.304-0.106-14.951-5.275
				c-7.647-5.169-29.868-35.679-58.352-45.197c-28.485-9.518-36.115,0.497-59.04-20.797
				C37.779,374.417,57.059,386.363,96.654,411.135z"/>
			<g>
				<path style="fill:#5D1408;" d="M29.708,363.979c4.01,4.957,9.074,8.892,14.16,12.67c5.129,3.747,10.404,7.292,15.733,10.753
					c10.663,6.917,21.474,13.608,32.267,20.326c2.697,1.682,5.396,3.363,8.126,4.977l4.075,2.46l4.165,2.302
					c2.752,1.583,5.619,2.946,8.447,4.386c1.412,0.724,2.879,1.333,4.315,2.006c1.444,0.658,2.881,1.331,4.359,1.909
					c5.836,2.493,11.85,4.566,17.971,6.234c1.524,0.442,3.079,0.762,4.617,1.15c1.551,0.327,3.102,0.664,4.666,0.928
					c3.12,0.544,6.281,0.966,9.438,1.029l0.001,0.28c-1.355-0.07-2.676-0.297-3.986-0.593c-1.306-0.304-2.597-0.673-3.851-1.146
					c-1.252-0.473-2.489-0.993-3.67-1.622c-1.195-0.602-2.329-1.316-3.442-2.054c1.127,0.719,2.271,1.412,3.474,1.992
					c1.189,0.607,2.431,1.104,3.686,1.553c1.256,0.448,2.547,0.793,3.848,1.072c1.301,0.271,2.628,0.473,3.945,0.518l0.001,0.28
					c-3.202-0.003-6.373-0.374-9.512-0.915c-1.572-0.256-3.131-0.584-4.691-0.904c-1.546-0.379-3.11-0.692-4.642-1.126
					c-6.154-1.637-12.202-3.681-18.073-6.147c-11.798-4.813-22.934-11.129-33.641-17.974c-10.754-6.782-21.526-13.539-32.155-20.524
					c-5.304-3.506-10.59-7.052-15.671-10.884C38.642,373.043,33.632,369.007,29.708,363.979z"/>
			</g>
			<g>
				<path style="fill:#5D1408;" d="M93.246,409.003c-1.2-1.347-2.122-2.926-2.896-4.559c-0.772-1.638-1.373-3.362-1.774-5.131
					c-0.376-1.772-0.665-3.573-0.661-5.386c-0.045-0.904,0.033-1.808,0.069-2.708c0.081-0.898,0.224-1.791,0.367-2.675
					c-0.005,1.8-0.039,3.582,0.14,5.352c0.131,1.771,0.433,3.522,0.816,5.248c0.373,1.732,0.939,3.414,1.57,5.072
					C91.529,405.866,92.3,407.477,93.246,409.003z"/>
			</g>
			<g>
				<path style="fill:#5D1408;" d="M88.639,425.181c1.055,0.182,2.116,0.287,3.179,0.326c1.06,0.068,2.124,0.064,3.183,0.024
					c2.119-0.076,4.232-0.281,6.32-0.645c2.093-0.337,4.162-0.82,6.209-1.395c2.054-0.556,4.062-1.264,6.093-1.952
					c-0.957,0.477-1.928,0.933-2.908,1.374c-1.004,0.375-1.991,0.807-3.016,1.131c-1.017,0.35-2.05,0.651-3.098,0.898
					c-1.039,0.284-2.1,0.474-3.157,0.685c-2.132,0.308-4.284,0.528-6.44,0.48C92.855,426.049,90.686,425.841,88.639,425.181z"/>
			</g>
		</g>
		<g>
			<g>
				<path style="fill:#B74B4B;" d="M402.686,345.883c0,0-6.165-13.42,9.392-18.368C412.952,338.45,413.228,343.857,402.686,345.883z
					"/>
				<path style="fill:#D66562;" d="M402.686,345.883c6.196-6.445,9.392-18.368,9.392-18.368
					C396.521,332.463,402.686,345.883,402.686,345.883z"/>
			</g>
			<g>
				<path style="fill:#B74B4B;" d="M404.69,371.162c0,0,6.785-13.118,20.258-3.9C416.866,374.681,412.774,378.225,404.69,371.162z"
					/>
				<path style="fill:#D66562;" d="M404.69,371.162c8.893,0.918,20.258-3.899,20.258-3.899
					C411.475,358.045,404.69,371.162,404.69,371.162z"/>
			</g>
			<g>
				<path style="fill:#B74B4B;" d="M427.14,319.627c0,0-15.917-10.044-2.744-26.149C432.934,304.549,436.989,310.132,427.14,319.627
					z"/>
				<path style="fill:#D66562;" d="M427.14,319.627c2.135-11.192-2.744-26.149-2.744-26.149
					C411.222,309.582,427.14,319.627,427.14,319.627z"/>
			</g>
			<g>
				<path style="fill:#B74B4B;" d="M436.183,332.775c0,0-4.933-22.396,20.305-24.779
					C454.211,324.879,452.847,333.175,436.183,332.775z"/>
				<path style="fill:#D66562;" d="M436.183,332.775c11.526-7.738,20.305-24.779,20.305-24.779
					C431.25,310.379,436.183,332.775,436.183,332.775z"/>
			</g>
			<path style="fill:none;stroke:#5D1408;stroke-width:1.4274;stroke-linecap:round;stroke-miterlimit:10;" d="M371.091,390.913
				c0,0,1.078-20.712,30-29.181s26.56-38.476,25.683-44.878"/>
			<path style="fill:none;stroke:#5D1408;stroke-width:1.4274;stroke-linecap:round;stroke-miterlimit:10;" d="M423.844,342.768
				c0,0,11.792-5.469,16.125-15.238"/>
			<path style="fill:none;stroke:#5D1408;stroke-width:1.4274;stroke-linecap:round;stroke-miterlimit:10;" d="M401.091,361.731
				c0,0-2.629-10.39,3.891-18.514"/>
			<path style="fill:none;stroke:#5D1408;stroke-width:1.4274;stroke-linecap:round;stroke-miterlimit:10;" d="M384.07,369.964
				c0,0,9.987,5.446,23.844,0.81"/>
		</g>
		<g>
			<g>
				<path style="fill:#B74B4B;" d="M119.818,361.166c0,0,6.165-13.42-9.392-18.368C109.551,353.733,109.276,359.14,119.818,361.166z
					"/>
				<path style="fill:#D66562;" d="M119.818,361.166c-6.196-6.445-9.392-18.368-9.392-18.368
					C125.983,347.746,119.818,361.166,119.818,361.166z"/>
			</g>
			<g>
				<path style="fill:#B74B4B;" d="M117.814,386.446c0,0-6.785-13.118-20.258-3.899C105.638,389.964,109.73,393.509,117.814,386.446
					z"/>
				<path style="fill:#D66562;" d="M117.813,386.445c-8.893,0.918-20.258-3.899-20.258-3.899
					C111.029,373.328,117.813,386.445,117.813,386.445z"/>
			</g>
			<g>
				<path style="fill:#B74B4B;" d="M95.364,334.91c0,0,15.917-10.044,2.744-26.149C89.569,319.833,85.515,325.415,95.364,334.91z"/>
				<path style="fill:#D66562;" d="M95.364,334.91c-2.135-11.192,2.744-26.149,2.744-26.149
					C111.282,324.866,95.364,334.91,95.364,334.91z"/>
			</g>
			<g>
				<path style="fill:#B74B4B;" d="M86.321,348.058c0,0,4.933-22.396-20.305-24.779C68.293,340.163,69.656,348.458,86.321,348.058z"
					/>
				<path style="fill:#D66562;" d="M86.321,348.058c-11.526-7.738-20.305-24.779-20.305-24.779
					C91.254,325.662,86.321,348.058,86.321,348.058z"/>
			</g>
			<path style="fill:none;stroke:#5D1408;stroke-width:1.4274;stroke-linecap:round;stroke-miterlimit:10;" d="M151.413,406.196
				c0,0-1.078-20.712-30-29.182c-28.922-8.47-26.56-38.476-25.683-44.878"/>
			<path style="fill:none;stroke:#5D1408;stroke-width:1.4274;stroke-linecap:round;stroke-miterlimit:10;" d="M98.66,358.051
				c0,0-11.792-5.469-16.125-15.238"/>
			<path style="fill:none;stroke:#5D1408;stroke-width:1.4274;stroke-linecap:round;stroke-miterlimit:10;" d="M121.413,377.015
				c0,0,2.629-10.39-3.89-18.514"/>
			<path style="fill:none;stroke:#5D1408;stroke-width:1.4274;stroke-linecap:round;stroke-miterlimit:10;" d="M138.433,385.247
				c0,0-9.987,5.446-23.844,0.81"/>
		</g>
		<g>
			<path style="fill:#B74B4B;" d="M352.6,438.989c0,0,6.649-1.228,12.826-7.129c6.177-5.901,21.728-37.183,46.246-50.28
				c24.518-13.097,33.032-5.14,50.653-28.122C445.321,385.984,431.537,446.3,352.6,438.989z"/>
			<path style="fill:#873030;" d="M408.54,406.858c-32.294,28.738-55.94,32.132-55.94,32.132s6.649-1.228,12.826-7.129
				c6.177-5.901,21.728-37.183,46.247-50.28c24.518-13.097,33.032-5.14,50.653-28.122
				C456.577,364.233,440.834,378.12,408.54,406.858z"/>
			<g>
				<path style="fill:#5D1408;" d="M462.325,353.459c-2.802,5.196-6.749,9.654-10.738,13.966
					c-4.043,4.284-8.317,8.338-12.614,12.359c-8.617,8.02-17.4,15.854-26.163,23.709c-8.709,7.904-17.893,15.392-27.914,21.611
					c-4.975,3.159-10.178,5.962-15.539,8.409c-1.331,0.633-2.709,1.161-4.061,1.747c-1.374,0.533-2.746,1.074-4.141,1.551
					c-2.781,0.98-5.617,1.809-8.538,2.308l-0.042-0.255c1.194-0.245,2.375-0.635,3.52-1.084c1.144-0.456,2.269-0.971,3.346-1.575
					c1.075-0.604,2.132-1.25,3.123-1.988c1.008-0.716,1.945-1.525,2.861-2.356c-0.902,0.846-1.825,1.673-2.823,2.408
					c-0.98,0.757-2.028,1.424-3.098,2.049c-1.071,0.625-2.192,1.163-3.336,1.642c-1.149,0.473-2.32,0.884-3.545,1.158l-0.042-0.255
					c2.871-0.546,5.69-1.421,8.453-2.401c1.385-0.483,2.749-1.03,4.114-1.569c1.344-0.592,2.713-1.125,4.035-1.764
					c5.327-2.469,10.494-5.293,15.433-8.471c1.259-0.756,2.467-1.593,3.682-2.417c1.207-0.836,2.451-1.619,3.627-2.499
					c2.358-1.751,4.763-3.439,7.029-5.31l3.444-2.746l3.337-2.876c2.241-1.896,4.443-3.848,6.644-5.8
					c8.809-7.802,17.638-15.582,26.296-23.545c4.327-3.983,8.592-8.036,12.691-12.249
					C455.422,362.978,459.434,358.603,462.325,353.459z"/>
			</g>
			<g>
				<path style="fill:#5D1408;" d="M411.32,404.384c0.627-1.539,1.08-3.128,1.419-4.735c0.325-1.608,0.595-3.231,0.647-4.871
					c0.102-1.634,0.094-3.279-0.069-4.915c-0.111-1.643-0.417-3.264-0.701-4.906c0.267,0.785,0.537,1.577,0.75,2.384
					c0.173,0.815,0.384,1.628,0.483,2.46c0.277,1.655,0.28,3.342,0.231,5.017c-0.112,1.675-0.379,3.341-0.824,4.957
					C412.803,401.386,412.206,402.969,411.32,404.384z"/>
			</g>
			<g>
				<path style="fill:#5D1408;" d="M418.03,418.433c-1.766,0.918-3.713,1.445-5.665,1.83c-1.961,0.377-3.958,0.51-5.951,0.559
					c-1.994-0.038-3.988-0.154-5.953-0.476c-0.985-0.136-1.953-0.378-2.927-0.565c-0.962-0.251-1.919-0.516-2.866-0.803
					c1.96,0.313,3.902,0.648,5.862,0.838c1.957,0.208,3.919,0.328,5.881,0.312c1.962,0.009,3.922-0.131,5.867-0.39
					c0.973-0.127,1.944-0.289,2.901-0.515C416.144,419.023,417.095,418.763,418.03,418.433z"/>
			</g>
		</g>
	</g>
	<g>
		<path style="fill:#D3D1C5;" d="M116.81,499.91h111.385v-93.118c0-10.089-8.179-18.268-18.268-18.268h-74.85
			c-10.089,0-18.268,8.179-18.268,18.268V499.91z"/>
		<path style="fill:#EFEEE4;" d="M139.93,499.91h111.385v-93.118c0-10.089-8.179-18.268-18.268-18.268h-74.85
			c-10.089,0-18.268,8.179-18.268,18.268V499.91z"/>
		<path style="fill:none;stroke:#87857B;stroke-width:0.4706;stroke-miterlimit:10;" d="M146.087,388.525
			c-10.089,0-18.268,8.179-18.268,18.268v93.118"/>
		<path style="fill:#D3D1C5;" d="M190.894,125.478h-81.097c-4.949,0-8.961-4.012-8.961-8.961V62.63c0-4.949,4.012-8.961,8.961-8.961
			h81.097c4.949,0,8.961,4.012,8.961,8.961v53.888C199.855,121.466,195.843,125.478,190.894,125.478z"/>
		<path style="fill:#D3D1C5;" d="M195.68,388.525h-51.1c-8.69,0-15.734-7.045-15.734-15.734V149.727
			c0-8.69,7.045-15.734,15.734-15.734h51.1c8.69,0,15.734,7.045,15.734,15.734V372.79C211.415,381.48,204.37,388.525,195.68,388.525
			z"/>
		<path style="fill:none;stroke:#87857B;stroke-width:0.4706;stroke-miterlimit:10;" d="M171.947,388.525h-11.513
			c-8.69,0-15.735-7.045-15.735-15.734V149.727c0-8.69,7.045-15.734,15.735-15.734"/>
		<path style="fill:#EFEEE4;" d="M225.405,388.525h-51.1c-8.69,0-15.734-7.045-15.734-15.734V149.727
			c0-8.69,7.045-15.734,15.734-15.734h51.1c8.69,0,15.734,7.045,15.734,15.734V372.79
			C241.139,381.48,234.095,388.525,225.405,388.525z"/>
		<path style="fill:#D66562;" d="M215.387,247.167h-18.513c-9.115,0-16.505-7.389-16.505-16.505v-53.925
			c0-9.115,7.389-16.505,16.505-16.505h18.513c9.115,0,16.505,7.389,16.505,16.505v53.925
			C231.892,239.778,224.502,247.167,215.387,247.167z"/>
		
			<line style="fill:none;stroke:#B5B3AA;stroke-width:0.4;stroke-miterlimit:10;" x1="158.571" y1="291.424" x2="216.699" y2="291.424"/>
		<path style="opacity:0.83;fill:#7C796B;" d="M225.405,133.993h-21.256v202.095c0,17.647,14.306,31.953,31.953,31.953h5.038
			V149.727C241.139,141.038,234.095,133.993,225.405,133.993z"/>
		<path style="fill:#56221C;" d="M283.021,268.281l13.093,0c8.186,0,14.847-6.66,14.847-14.847V193.56
			c0-8.187-6.661-14.847-14.847-14.847h-13.093c-1.933,0-3.5,1.567-3.5,3.5c0,1.933,1.567,3.5,3.5,3.5h13.093
			c4.327,0,7.847,3.52,7.847,7.847v59.874c0,4.327-3.52,7.847-7.847,7.847l-13.093,0c-1.933,0-3.5,1.567-3.5,3.5
			C279.521,266.714,281.088,268.281,283.021,268.281z"/>
		<path style="fill:#D3D1C5;" d="M298.607,357.479h-49.955c-17.647,0-31.953-14.306-31.953-31.953V98.287h81.908V357.479z"/>
		<path style="fill:#EFEEE4;" d="M245.954,98.287v227.238c0,17.647,14.306,31.953,31.953,31.953h20.7V98.287H245.954z"/>
		<path style="fill:#EFEEE4;" d="M350.061,133.993h-90.646V64.855h90.646c7.983,0,14.456,6.472,14.456,14.455v40.227
			C364.516,127.521,358.044,133.993,350.061,133.993z"/>
		<path style="fill:#D3D1C5;" d="M289.6,133.993v193.812c0,8.336-6.757,15.093-15.093,15.093h0c-8.336,0-15.093-6.757-15.093-15.093
			V133.993"/>
		<path style="fill:none;stroke:#8E8B7B;stroke-width:0.5;stroke-miterlimit:10;" d="M289.6,133.993v193.812
			c0,8.336-6.757,15.093-15.093,15.093h0c-8.336,0-15.093-6.757-15.093-15.093V133.993"/>
		<path style="fill:#D3D1C5;" d="M275.145,133.993h-58.446V90.257c0-14.029,11.372-25.401,25.401-25.401h33.045
			c7.984,0,14.456,6.472,14.456,14.455v40.227C289.6,127.521,283.128,133.993,275.145,133.993z"/>
		<polyline style="fill:none;stroke:#87857B;stroke-width:0.4706;stroke-miterlimit:10;" points="233.35,66.403 233.35,92.158 
			289.6,92.158 		"/>
		
			<line style="fill:none;stroke:#B5B3AA;stroke-width:0.4;stroke-miterlimit:10;" x1="364.516" y1="92.158" x2="289.6" y2="92.158"/>
		<g>
			<polygon style="fill:#E08080;" points="259.415,253.125 289.681,253.125 311.259,272.501 280.993,272.501 			"/>
			<polygon style="fill:#BA5050;" points="280.993,272.501 280.993,283.29 259.415,283.29 259.415,253.125 			"/>
			<rect x="280.993" y="272.501" style="fill:#963B3B;" width="30.266" height="10.789"/>
		</g>
		<polygon style="opacity:0.83;fill:#7C796B;" points="298.607,173.514 245.954,173.514 245.954,133.993 298.607,167.901 		"/>
		<rect x="259.415" y="299.166" style="fill:#BA5050;" width="30.186" height="10.465"/>
		<path style="fill:#56221C;" d="M226.167,268.281h-13.093c-8.187,0-14.847-6.66-14.847-14.847V193.56
			c0-8.187,6.661-14.847,14.847-14.847h13.093c1.933,0,3.5,1.567,3.5,3.5c0,1.933-1.567,3.5-3.5,3.5h-13.093
			c-4.327,0-7.847,3.52-7.847,7.847v59.874c0,4.327,3.52,7.847,7.847,7.847h13.093c1.933,0,3.5,1.567,3.5,3.5
			C229.667,266.714,228.1,268.281,226.167,268.281z"/>
		<rect x="269.197" y="133.993" style="fill:#EFEEE4;" width="74.823" height="33.908"/>
		<polygon style="fill:#D3D1C5;" points="269.197,167.901 259.415,167.901 245.103,133.993 269.197,133.993 		"/>
		<path style="fill:#EFEEE4;" d="M198.772,125.478h-81.097c-4.949,0-8.961-4.012-8.961-8.961V62.63c0-4.949,4.012-8.961,8.961-8.961
			h81.097c4.949,0,8.961,4.012,8.961,8.961v53.888C207.732,121.466,203.721,125.478,198.772,125.478z"/>
		<rect x="117.947" y="61.553" style="fill:#E08080;" width="81.908" height="56.807"/>
		<rect x="195.622" y="61.553" style="fill:#56221C;" width="4.233" height="56.807"/>
		<rect x="174.305" y="125.478" style="fill:#56221C;" width="9.366" height="8.515"/>
		<polygon style="opacity:0.4;fill:#7C796B;" points="245.103,133.993 344.02,133.993 344.02,138.176 246.868,138.176 		"/>
		<path style="fill:none;stroke:#87857B;stroke-width:0.4706;stroke-miterlimit:10;" d="M233.35,92.158v241.515
			c0,13.427,10.885,24.311,24.311,24.311h14.028"/>
		
			<line style="fill:none;stroke:#87857B;stroke-width:0.4706;stroke-miterlimit:10;" x1="158.571" y1="291.424" x2="128.846" y2="291.424"/>
		<g>
			<path style="fill:#BA5050;" d="M142.824,66.403v44.361c0,0,31.046,0.33,33.358-15.853
				C178.493,78.727,146.787,71.253,142.824,66.403z"/>
			<path style="opacity:0.37;fill:#56221C;" d="M149.76,76.085c0,0,20.973,9.082,21.138,17.009
				c0.165,7.927-20.807,12.385-20.807,12.385L149.76,76.085z"/>
			<path style="fill:#BA5050;" d="M175.604,90.782c0,0,2.477,0.348,2.312,2.33c-0.165,1.982-2.312,2.294-2.312,2.294V90.782z"/>
			<path style="fill:none;stroke:#E08080;stroke-width:0.5;stroke-miterlimit:10;" d="M149.832,82.525c0,0,3.561-0.33,5.873,2.394
				c2.312,2.725,10.404,4.654,10.404,4.654"/>
			<path style="fill:none;stroke:#E08080;stroke-width:0.5;stroke-miterlimit:10;" d="M158.845,87.066c0,0,3.3-1.073,5.117-0.66"/>
			<path style="fill:none;stroke:#E08080;stroke-width:0.5;stroke-miterlimit:10;" d="M149.889,87.562c0,0,2.513,0.33,5.073,1.486
				c2.56,1.156,5.367,0.526,5.367,0.526"/>
			<path style="fill:none;stroke:#E08080;stroke-width:0.5;stroke-miterlimit:10;" d="M149.968,94.663c0,0,3.424-0.166,7.47-1.322
				c4.046-1.156,9.413-0.743,9.413-0.743"/>
			<path style="fill:none;stroke:#E08080;stroke-width:0.5;stroke-miterlimit:10;" d="M155.712,93.787c0,0,3.13,1.784,7.919,1.618"
				/>
			<path style="fill:none;stroke:#E08080;stroke-width:0.5;stroke-miterlimit:10;" d="M150.031,100.196
				c0,0,10.298-0.331,14.839-4.047"/>
			
				<line style="fill:none;stroke:#F4E9D3;stroke-width:0.5;stroke-miterlimit:10;" x1="142.824" y1="64.855" x2="142.824" y2="113.247"/>
		</g>
		
			<line style="fill:none;stroke:#F4E9D3;stroke-width:0.5;stroke-miterlimit:10;" x1="123.106" y1="113.247" x2="188.016" y2="113.247"/>
		
			<rect x="123.573" y="65.771" style="fill:none;stroke:#F4E9D3;stroke-width:0.5;stroke-miterlimit:10;" width="11.519" height="32.844"/>
		
			<rect x="123.573" y="100.795" style="fill:none;stroke:#F4E9D3;stroke-width:0.5;stroke-miterlimit:10;" width="11.519" height="9.97"/>
		
			<rect x="181.011" y="64.855" style="fill:none;stroke:#F4E9D3;stroke-width:0.5;stroke-miterlimit:10;" width="7.005" height="4.807"/>
		
			<ellipse transform="matrix(0.2286 -0.9735 0.9735 0.2286 -274.7932 475.8134)" style="fill:none;stroke:#B5B3AA;stroke-width:0.4;stroke-miterlimit:10;" cx="162.846" cy="411.304" rx="11.757" ry="11.757"/>
		<circle style="fill:#D66562;" cx="162.846" cy="411.304" r="6.737"/>
		
			<ellipse transform="matrix(0.7071 -0.7071 0.7071 0.7071 -222.9162 284.4403)" style="fill:none;stroke:#B5B3AA;stroke-width:0.4;stroke-miterlimit:10;" cx="231.892" cy="411.304" rx="11.757" ry="11.757"/>
		<circle style="fill:#D66562;" cx="231.892" cy="411.304" r="6.737"/>
		<path style="fill:none;stroke:#B5B3AA;stroke-width:0.4;stroke-miterlimit:10;" d="M229.139,488.928h-64.734c-6.6,0-12-5.4-12-12
			v-26.642c0-6.6,5.4-12,12-12h64.734c6.6,0,12,5.4,12,12v26.642C241.139,483.528,235.739,488.928,229.139,488.928z"/>
	</g>
	<g>
		<g>
			
				<rect x="89.256" y="142.233" transform="matrix(-1.836970e-16 1 -1 -1.836970e-16 258.3682 68.6269)" style="fill:#D66562;" width="11.229" height="42.53"/>
			
				<rect x="89.256" y="142.233" transform="matrix(-1 -1.224647e-16 1.224647e-16 -1 189.7414 326.9952)" style="fill:#D66562;" width="11.229" height="42.53"/>
		</g>
		<g>
			
				<rect x="394.841" y="132.485" transform="matrix(-1.836970e-16 1 -1 -1.836970e-16 545.5905 -251.722)" style="fill:#D66562;" width="7.63" height="28.899"/>
			
				<rect x="394.841" y="132.485" transform="matrix(-1 -1.224647e-16 1.224647e-16 -1 797.3127 293.8685)" style="fill:#D66562;" width="7.63" height="28.899"/>
		</g>
		<g>
			
				<rect x="406.273" y="197.336" transform="matrix(-1.836970e-16 1 -1 -1.836970e-16 616.8612 -201.2214)" style="fill:#FFFFFF;" width="5.536" height="20.969"/>
			
				<rect x="406.273" y="197.336" transform="matrix(-1 -1.224647e-16 1.224647e-16 -1 818.0826 415.6398)" style="fill:#FFFFFF;" width="5.536" height="20.969"/>
		</g>
		<g>
			
				<rect x="79.766" y="277.896" transform="matrix(-1.836970e-16 1 -1 -1.836970e-16 370.9146 205.8454)" style="fill:#FFFFFF;" width="5.536" height="20.969"/>
			
				<rect x="79.766" y="277.896" transform="matrix(-1 -1.224647e-16 1.224647e-16 -1 165.0692 576.76)" style="fill:#FFFFFF;" width="5.536" height="20.969"/>
		</g>
		<g>
			
				<rect x="102.923" y="219.949" transform="matrix(-1.836970e-16 1 -1 -1.836970e-16 339.8602 126.9165)" style="fill:#56221C;" width="7.097" height="26.88"/>
			
				<rect x="102.923" y="219.949" transform="matrix(-1 -1.224647e-16 1.224647e-16 -1 212.9438 466.7767)" style="fill:#56221C;" width="7.097" height="26.88"/>
		</g>
	</g>
	<g>
		<path style="fill:#D59880;" d="M399.644,310.91c0,0-1.651,38.642-4.954,54.826c-3.303,16.183-12.881,45.908-23.449,67.706
			c-9.248-47.229-7.266-65.064-7.266-65.064l14.202-53.174L399.644,310.91z"/>
		<path style="opacity:0.34;fill:#A05A42;" d="M395.756,352.486c-7.752,0-14.037,6.284-14.037,14.037
			c0,6.155,3.967,11.371,9.479,13.265c1.489-5.287,2.68-10.08,3.491-14.053c0.723-3.54,1.366-8.156,1.93-13.206
			C396.333,352.512,396.048,352.486,395.756,352.486z"/>
		<path style="opacity:0.58;fill:#9B6053;" d="M399.644,310.91l-21.468,4.294l-5.898,22.084c0.752,11.278,1.599,21.587,1.935,16.888
			c0.66-9.248,9.578-21.138,17.504-25.431c3.106-1.683,5.493-3.565,7.259-5.236C399.42,316.122,399.644,310.91,399.644,310.91z"/>
		<path style="fill:#9E4343;" d="M392.708,247.167c0,0,10.899,14.532,8.917,66.385c-14.532,11.56-23.449,9.578-23.449,9.578
			L392.708,247.167z"/>
		<path style="fill:#56221C;" d="M401.625,313.552c0.156-4.086,0.224-7.914,0.232-11.547c-4.444,3.512-11.673,8.126-21.793,11.252
			l-1.889,9.873C378.176,323.13,387.093,325.112,401.625,313.552z"/>
		<path style="fill:#D66562;" d="M379.662,239.24c0,0,8.752,2.642,13.046,7.927c2.312,50.532-16.514,86.532-19.156,116.257
			c-2.642,29.725,4.294,53.174,8.257,76.624c3.963,23.449,3.303,59.953,3.303,59.953H275.791c0,0-0.33-52.026,15.523-90.668
			c8.257-25.761,9.248-63.413,9.248-63.413l-0.661-67.376C299.901,278.543,371.57,253.442,379.662,239.24z"/>
		<path style="fill:#BA5050;" d="M379.662,247.167c0,0-22.714,68.047-79.311,77.29c-1.441,11.224-1.441,11.224-1.441,11.224
			S351.754,318.837,379.662,247.167z"/>
		<path style="fill:#BA5050;" d="M374.213,274.11c0,0-14.074,38.121-49.147,59.919C341.515,327.754,368.928,317.896,374.213,274.11z
			"/>
		<path style="fill:#BA5050;" d="M358.772,330.066c0,0-30.138,16.184-45.66,54.826C332.928,358.47,358.772,330.066,358.772,330.066z
			"/>
		<path style="fill:#9E4343;" d="M305.069,331.077c0,0,13.572,30.613,13.615,38.543c-13.168,14.28-24.397,15.271-24.397,15.271
			l-11.89-39.303L305.069,331.077z"/>
		<path style="fill:#56221C;" d="M294.286,384.892c0,0,11.229-0.991,24.397-15.271c-0.011-2.107-0.982-5.821-2.395-10.13
			c-4.397,3.989-12.898,10.833-24.706,16.463L294.286,384.892z"/>
		<path style="opacity:0.54;fill:#56221C;" d="M300.445,334.037l-9.35,5.984c-1.43,5.738-3.034,12.516-4.495,19.464l7.686,25.406
			c0,0,0.966-0.088,2.654-0.565c-0.637,4.056-1.387,8.17-2.261,12.202c21.597-25.253,12.653-92.389,12.653-92.389l-7.055,12.733
			L300.445,334.037z"/>
		<path style="fill:#B57866;" d="M250.245,437.256c0,0-8.803,12.369-8.803,16.002s9.413-1.982,9.413-1.982L250.245,437.256z"/>
		<path style="fill:#D59880;" d="M322.69,155.846c0,0-5.45,9.248-7.266,18.991s-3.963,33.358,0,35.67
			c5.119,1.982,17.174,0.495,17.174,0.495s1.651,19.486-7.431,23.615c-9.082,4.128-32.367,2.363-39.468,15.383
			c-7.101,13.02-13.211,76.268-14.367,89.148c-1.156,12.881-1.816,21.468-1.816,21.468s-6.44,24.936-8.587,38.312
			c-2.147,13.376-10.073,36.165-12.055,42.605c-1.982,6.44,1.321,20.807,9.743,23.78c3.798,4.954,6.11,4.459,10.073,2.807
			c4.789,1.982,10.734-0.495,10.404-3.468c-0.33-2.973-0.991-7.266-4.459-7.266c-3.798-6.771-4.294-14.037-0.991-20.147
			c3.303-6.11,22.789-60.275,26.422-71.009c3.633-10.734,7.266-62.092,7.266-62.092s54.991-12.055,72.33-64.899
			c-17.174-5.78-28.238-13.706-25.101-26.917c1.651-9.083,8.263-12.753,8.263-12.753l-27.253-40.422L322.69,155.846z"/>
		<path style="opacity:0.26;fill:#9B6053;" d="M331.403,188.584c0,0,16.729,3.19,16.204,9.372c0,6.275-3.119,9.743-3.119,9.743
			s-11.838,9.505-6.165,24.541c6.462,17.128,31.038,5.82,31.038,5.82l-15.13-38.309L331.403,188.584z"/>
		<path style="fill:#56221C;" d="M322.69,155.846c0,0-0.826,11.229,0.991,17.339c0.826,6.275,0.826,6.275,0.826,6.275
			s2.312,5.45,9.248,11.229c6.936,5.78,13.871,9.248,13.871,9.248s13.046-0.165,17.505-0.495
			c14.697-21.468,10.569-37.156,4.459-46.734C363.479,143.13,332.268,140.158,322.69,155.846z"/>
		
			<ellipse transform="matrix(0.5018 -0.865 0.865 0.5018 -14.8411 421.8526)" style="fill:#56221C;" cx="358.772" cy="223.809" rx="17.752" ry="17.752"/>
		<path style="fill:#56221C;" d="M315.008,177.275c0,0,1.406-1.117,2.727-1.117c1.321,0,1.768-3.537-2.088-2.429
			C314.433,175.167,315.008,177.275,315.008,177.275z"/>
		<path style="fill:#9B6053;" d="M332.598,211.002c0,0,0.33-5.284-3.468-3.633c-3.794,1.65-11.587,3.702-11.604,3.707
			C323.254,212.153,332.598,211.002,332.598,211.002z"/>
		<path style="fill:none;stroke:#723C2E;stroke-width:0.5311;stroke-linecap:round;stroke-miterlimit:10;" d="M307.332,304.139
			c0,0,0.877-12.461,1.486-19.915"/>
		<path style="fill:none;stroke:#723C2E;stroke-width:0.5311;stroke-linecap:round;stroke-miterlimit:10;" d="M347.607,284.225
			c0,0,3.258-6.672,1.225-13.938"/>
		<path style="opacity:0.34;fill:#A05A42;" d="M303.407,346.688c-1.827-0.699-3.802-1.099-5.875-1.099
			c-9.089,0-16.457,7.368-16.457,16.457c0,8.501,6.447,15.494,14.717,16.363c1.952-5.479,3.486-9.85,4.274-12.178
			C301.218,362.826,302.371,355.332,303.407,346.688z"/>
		<path style="fill:none;stroke:#723C2E;stroke-width:0.5;stroke-miterlimit:10;" d="M268.69,468.121c0,0-4.335-4.688-4.129-11.395"
			/>
		<path style="fill:none;stroke:#723C2E;stroke-width:0.5;stroke-miterlimit:10;" d="M258.616,465.313c0,0-1.651-3.576-2.477-10.347
			"/>
		<path style="fill:none;stroke:#723C2E;stroke-width:0.5;stroke-miterlimit:10;" d="M274.635,457.387c0,0,0.494,1.982,1.155,4.294"
			/>
		<path style="fill:#3A1412;" d="M343.187,145.024c-0.456,7.916,1.021,29.96,29.993,38.49c4.294-13.466,0.89-23.781-3.591-30.805
			C366.091,147.226,354.369,143.916,343.187,145.024z"/>
		<path style="fill:#3A1412;" d="M376.524,223.809c0-4.896-1.982-9.328-5.187-12.539c-7.825,1.847-21.333,8.154-17.357,29.619
			c1.526,0.428,3.129,0.673,4.792,0.673C368.577,241.561,376.524,233.613,376.524,223.809z"/>
		<path style="opacity:0.24;fill:#EFEEE4;" d="M334.678,146.839c-4.997,1.736-9.328,4.65-11.989,9.007
			c0,0-0.826,11.229,0.991,17.339c0.826,6.275,0.826,6.275,0.826,6.275s2.312,5.45,9.248,11.229
			c6.936,5.78,13.872,9.248,13.872,9.248s5.115-0.065,10.033-0.194C336.054,182.396,334.221,158.012,334.678,146.839z"/>
		<path style="opacity:0.24;fill:#EFEEE4;" d="M358.772,206.057l-6.142,1.114c-6.772,2.502-11.61,8.997-11.61,16.638
			c0,3.052,0.771,5.923,2.128,8.431C346.427,217.028,358.772,206.057,358.772,206.057z"/>
		<path style="fill:#B57A68;" d="M326.158,176.984c0,0,5.119,1.982,2.807,8.092c-2.312,6.11-3.963,9.083-5.615,9.248
			c-1.651,0.165,0-5.45,0.495-7.431C324.341,184.91,324.011,177.149,326.158,176.984z"/>
		<path style="fill:#FFF6E7;" d="M365.13,199.442c0,0,3.303,3.963,0.661,7.927c-5.78,1.486-13.706,2.477-16.349,0
			c-2.147-4.789-1.816-7.431-1.816-7.431L365.13,199.442z"/>
		<path style="fill:none;stroke:#FFFFFF;stroke-miterlimit:10;" d="M379.662,239.24c0,0-8.752,45.973-72.33,64.899"/>
		<path style="fill:#BA5050;" d="M381.809,440.047c-3.963-23.449-10.899-46.899-8.257-76.624c0.493-5.547,1.55-11.313,2.928-17.35
			l0-0.001c0,0-7.524,31.157-26.584,50.456c-17.23,17.447-55.134,65.187-48.467,103.472h83.683
			C385.112,500,385.772,463.497,381.809,440.047z"/>
	</g>
</g>
</svg>
